<?xml version="1.0" encoding="utf-8"?>
<!-- Generator: Adobe Illustrator 24.1.1, SVG Export Plug-In . SVG Version: 6.00 Build 0)  -->
<svg version="1.1" id="Layer_1" xmlns="http://www.w3.org/2000/svg" xmlns:xlink="http://www.w3.org/1999/xlink" x="0px" y="0px"
	 viewBox="0 0 512 512" style="enable-background:new 0 0 512 512;" xml:space="preserve">
<g>
	<path d="M375.3,42.9l16.6,16.6c8.4-8.4,19.3-12.5,30.3-12.6c11.1,0,21.9,4.1,30.3,12.6c8.4,8.4,12.5,19.3,12.6,30.3
		c0,11.1-4.1,21.9-12.6,30.3L140.3,432.4l-83.4,22.7l22.7-83.4L391.9,59.5L375.3,42.9l-16.6-16.6L42,343c-2.9,2.9-5,6.5-6,10.4
		l-35.2,129c-2.2,8.1,0.1,16.8,6,22.8s14.7,8.2,22.8,6l129-35.2c4-1.1,7.5-3.1,10.4-6l316.7-316.7c17.5-17.5,26.3-40.6,26.3-63.5
		c0-22.9-8.8-46-26.3-63.5C468.2,8.8,445.1,0,422.2,0c-22.9,0-46,8.8-63.5,26.3l0,0L375.3,42.9z"/>
</g>
</svg>
